<?xml version="1.0" encoding="UTF-8" standalone="no"?>
<!-- Created with Inkscape (http://www.inkscape.org/) -->

<svg
   xmlns:dc="http://purl.org/dc/elements/1.1/"
   xmlns:cc="http://creativecommons.org/ns#"
   xmlns:rdf="http://www.w3.org/1999/02/22-rdf-syntax-ns#"
   xmlns:svg="http://www.w3.org/2000/svg"
   xmlns="http://www.w3.org/2000/svg"
   xmlns:sodipodi="http://sodipodi.sourceforge.net/DTD/sodipodi-0.dtd"
   xmlns:inkscape="http://www.inkscape.org/namespaces/inkscape"
   width="800"
   height="800"
   viewBox="0 0 211.66667 211.66666"
   version="1.1"
   id="svg4536"
   inkscape:version="0.92.1 r15371"
   sodipodi:docname="spanish-cadastre-buildings-import-logo.svg"
   inkscape:export-filename="/home/dcapillae/download/Spanish_Cadastre_Buildings_Import.png"
   inkscape:export-xdpi="65"
   inkscape:export-ydpi="65">
  <title
     id="title5619">Spanish Cadastre Buildings Import</title>
  <defs
     id="defs4530">
    <inkscape:path-effect
       effect="powerstroke"
       id="path-effect4948"
       is_visible="true"
       offset_points="1,0.13229166"
       sort_points="true"
       interpolator_type="CubicBezierJohan"
       interpolator_beta="0.2"
       start_linecap_type="zerowidth"
       linejoin_type="extrp_arc"
       miter_limit="4"
       end_linecap_type="zerowidth" />
    <inkscape:path-effect
       effect="powerstroke"
       id="path-effect4942"
       is_visible="true"
       offset_points="1,0.13229166"
       sort_points="true"
       interpolator_type="CubicBezierJohan"
       interpolator_beta="0.2"
       start_linecap_type="zerowidth"
       linejoin_type="extrp_arc"
       miter_limit="4"
       end_linecap_type="zerowidth" />
    <inkscape:path-effect
       effect="powerstroke"
       id="path-effect4936"
       is_visible="true"
       offset_points="1,-0.42984344"
       sort_points="true"
       interpolator_type="CubicBezierJohan"
       interpolator_beta="0.2"
       start_linecap_type="zerowidth"
       linejoin_type="extrp_arc"
       miter_limit="4"
       end_linecap_type="zerowidth" />
    <inkscape:path-effect
       effect="powerstroke"
       id="path-effect4713"
       is_visible="true"
       offset_points="1,0.13229166"
       sort_points="true"
       interpolator_type="CubicBezierJohan"
       interpolator_beta="0.2"
       start_linecap_type="zerowidth"
       linejoin_type="extrp_arc"
       miter_limit="4"
       end_linecap_type="zerowidth" />
    <inkscape:path-effect
       effect="powerstroke"
       id="path-effect4705"
       is_visible="true"
       offset_points="1,0.13229166"
       sort_points="true"
       interpolator_type="CubicBezierJohan"
       interpolator_beta="0.2"
       start_linecap_type="zerowidth"
       linejoin_type="extrp_arc"
       miter_limit="4"
       end_linecap_type="zerowidth" />
    <inkscape:path-effect
       effect="powerstroke"
       id="path-effect4699"
       is_visible="true"
       offset_points="1,0.13229166"
       sort_points="true"
       interpolator_type="CubicBezierJohan"
       interpolator_beta="0.2"
       start_linecap_type="zerowidth"
       linejoin_type="extrp_arc"
       miter_limit="4"
       end_linecap_type="zerowidth" />
    <inkscape:path-effect
       effect="powerstroke"
       id="path-effect4695"
       is_visible="true"
       offset_points="1,0.13229166"
       sort_points="true"
       interpolator_type="CubicBezierJohan"
       interpolator_beta="0.2"
       start_linecap_type="zerowidth"
       linejoin_type="extrp_arc"
       miter_limit="4"
       end_linecap_type="zerowidth" />
  </defs>
  <sodipodi:namedview
     id="base"
     pagecolor="#ffffff"
     bordercolor="#666666"
     borderopacity="1.0"
     inkscape:pageopacity="0.0"
     inkscape:pageshadow="2"
     inkscape:zoom="0.41226312"
     inkscape:cx="389.218"
     inkscape:cy="351.6022"
     inkscape:document-units="mm"
     inkscape:current-layer="layer1"
     showgrid="false"
     units="px"
     inkscape:window-width="1024"
     inkscape:window-height="704"
     inkscape:window-x="0"
     inkscape:window-y="27"
     inkscape:window-maximized="1"
     showborder="true" />
  <metadata
     id="metadata4533">
    <rdf:RDF>
      <cc:Work
         rdf:about="">
        <dc:format>image/svg+xml</dc:format>
        <dc:type
           rdf:resource="http://purl.org/dc/dcmitype/StillImage" />
        <dc:title>Spanish Cadastre Buildings Import</dc:title>
        <cc:license
           rdf:resource="http://creativecommons.org/publicdomain/zero/1.0/" />
        <dc:date>2018-02-26</dc:date>
        <dc:creator>
          <cc:Agent>
            <dc:title>Daniel Capilla</dc:title>
          </cc:Agent>
        </dc:creator>
        <dc:rights>
          <cc:Agent>
            <dc:title>Public domain</dc:title>
          </cc:Agent>
        </dc:rights>
        <dc:language>en</dc:language>
        <dc:subject>
          <rdf:Bag>
            <rdf:li>Spanish Cadastre; OpenStreetMap; Buildings; Import</rdf:li>
          </rdf:Bag>
        </dc:subject>
        <dc:coverage>Spain</dc:coverage>
        <dc:description>A logo proposal for the Spanish Cadastre Buildings Import on OpenStreetMap.</dc:description>
      </cc:Work>
      <cc:License
         rdf:about="http://creativecommons.org/publicdomain/zero/1.0/">
        <cc:permits
           rdf:resource="http://creativecommons.org/ns#Reproduction" />
        <cc:permits
           rdf:resource="http://creativecommons.org/ns#Distribution" />
        <cc:permits
           rdf:resource="http://creativecommons.org/ns#DerivativeWorks" />
      </cc:License>
    </rdf:RDF>
  </metadata>
  <g
     inkscape:label="Capa 1"
     inkscape:groupmode="layer"
     id="layer1"
     transform="translate(0,-85.333343)">
    <g
       id="g5825">
      <rect
         y="224.97763"
         x="0.7380392"
         height="71.28434"
         width="210.19058"
         id="rect4597"
         style="opacity:1;fill:#ffffff;fill-opacity:0.99609375;fill-rule:nonzero;stroke:#ffffff;stroke-width:1.47607839;stroke-linecap:round;stroke-linejoin:round;stroke-miterlimit:4;stroke-dasharray:none;stroke-opacity:1" />
      <rect
         y="85.333344"
         x="-1.110223e-16"
         height="138.90625"
         width="211.66667"
         id="rect4504"
         style="opacity:1;fill:#c0c7ff;fill-opacity:0.99609375;fill-rule:nonzero;stroke:none;stroke-width:0.81982148;stroke-linecap:round;stroke-linejoin:round;stroke-miterlimit:4;stroke-dasharray:none;stroke-opacity:1" />
    </g>
    <g
       id="g5288"
       transform="matrix(0.99302821,0,0,1.0012779,0.73784567,-0.10905075)">
      <path
         sodipodi:nodetypes="cccccccccc"
         inkscape:connector-curvature="0"
         id="path4976"
         d="m 205.16187,242.20477 -116.856418,0.0879 0.06598,-18.68332 H 41.741219 V 91.448864 H 89.961258 V 122.64056 H 205.03538 v 66.1009 z"
         style="fill:#ffd5d5;fill-rule:evenodd;stroke:#ff0000;stroke-width:2.32695293;stroke-linecap:butt;stroke-linejoin:miter;stroke-miterlimit:4;stroke-dasharray:none;stroke-opacity:1" />
      <rect
         y="197.73645"
         x="122.65942"
         height="44.557133"
         width="82.358467"
         id="rect4966"
         style="opacity:1;fill:#ffd5d5;fill-opacity:0.99609375;fill-rule:nonzero;stroke:#ff0000;stroke-width:2.32695293;stroke-linecap:round;stroke-linejoin:round;stroke-miterlimit:4;stroke-dasharray:none;stroke-opacity:1" />
      <rect
         y="170.62288"
         x="78.296257"
         height="71.670692"
         width="44.363163"
         id="rect4968"
         style="opacity:1;fill:#ffd5d5;fill-opacity:0.99609375;fill-rule:nonzero;stroke:#ff0000;stroke-width:2.32695293;stroke-linecap:round;stroke-linejoin:round;stroke-miterlimit:4;stroke-dasharray:none;stroke-opacity:1" />
      <text
         transform="scale(1.0619443,0.94166898)"
         id="text5019"
         y="148.88301"
         x="59.81469"
         style="font-style:normal;font-weight:normal;font-size:19.70153236px;line-height:125%;font-family:Sans;letter-spacing:0px;word-spacing:0px;fill:#ff0000;fill-opacity:1;stroke:none;stroke-width:0.61567289px;stroke-linecap:butt;stroke-linejoin:miter;stroke-opacity:1"
         xml:space="preserve"><tspan
           style="font-size:19.70153236px;fill:#ff0000;stroke-width:0.61567289px"
           y="148.88301"
           x="59.81469"
           id="tspan5017"
           sodipodi:role="line">I</tspan></text>
      <text
         transform="scale(1.0619443,0.94166898)"
         id="text5019-4"
         y="244.04408"
         x="148.47139"
         style="font-style:normal;font-weight:normal;font-size:19.70153236px;line-height:125%;font-family:Sans;letter-spacing:0px;word-spacing:0px;fill:#ff0000;fill-opacity:1;stroke:none;stroke-width:0.61567289px;stroke-linecap:butt;stroke-linejoin:miter;stroke-opacity:1"
         xml:space="preserve"><tspan
           style="font-size:19.70153236px;fill:#ff0000;stroke-width:0.61567289px"
           y="244.04408"
           x="148.47139"
           id="tspan5017-3"
           sodipodi:role="line">II</tspan></text>
      <text
         transform="scale(1.0619443,0.94166898)"
         id="text5019-0"
         y="227.94875"
         x="85.901237"
         style="font-style:normal;font-weight:normal;font-size:19.70153236px;line-height:125%;font-family:Sans;letter-spacing:0px;word-spacing:0px;fill:#ff0000;fill-opacity:1;stroke:none;stroke-width:0.61567289px;stroke-linecap:butt;stroke-linejoin:miter;stroke-opacity:1"
         xml:space="preserve"><tspan
           style="font-size:19.70153236px;fill:#ff0000;stroke-width:0.61567289px"
           y="227.94875"
           x="85.901237"
           id="tspan5017-30"
           sodipodi:role="line">III</tspan></text>
    </g>
    <g
       aria-label="Buildings Import
"
       transform="scale(0.65356111,1.5300788)"
       style="font-style:normal;font-weight:normal;font-size:32.83292007px;line-height:80.00000119%;font-family:Sans;letter-spacing:0px;word-spacing:0px;fill:#000000;fill-opacity:1;stroke:none;stroke-width:0.47997034px;stroke-linecap:butt;stroke-linejoin:miter;stroke-opacity:1"
       id="text4683">
      <path
         d="m 18.756137,171.22611 q 1.458885,0 2.212375,-0.64127 0.753489,-0.64127 0.753489,-1.89174 0,-1.23444 -0.753489,-1.87571 -0.75349,-0.6573 -2.212375,-0.6573 h -3.414752 v 5.06602 z m 0.208412,10.4687 q 1.859677,0 2.789516,-0.78556 0.94587,-0.78555 0.94587,-2.37269 0,-1.55507 -0.929838,-2.3246 -0.929839,-0.78555 -2.805548,-0.78555 h -3.623164 v 6.2684 z m 5.739349,-8.60903 q 1.98793,0.57714 3.078086,2.13222 1.090155,1.55507 1.090155,3.81554 0,3.46285 -2.340628,5.16221 -2.340628,1.69936 -7.118074,1.69936 H 9.1691809 v -23.93533 h 9.2663221 q 4.985859,0 7.214265,1.50698 2.244438,1.50698 2.244438,4.82555 0,1.74745 -0.817617,2.98189 -0.817617,1.21841 -2.372691,1.81158 z"
         style="font-style:normal;font-variant:normal;font-weight:bold;font-stretch:normal;font-size:32.83292007px;line-height:80.00000119%;font-family:Sans;-inkscape-font-specification:'Sans Bold';fill:#000000;stroke-width:0.47997034px"
         id="path4608" />
      <path
         d="m 33.729744,178.90529 v -10.96568 h 5.771412 v 1.79555 q 0,1.45888 -0.01603,3.67126 -0.01603,2.19634 -0.01603,2.9338 0,2.16428 0.112221,3.12618 0.112222,0.94587 0.384761,1.37873 0.352698,0.56111 0.913807,0.86571 0.577141,0.3046 1.314599,0.3046 1.795551,0 2.82158,-1.37873 1.026028,-1.37872 1.026028,-3.83157 v -8.86553 h 5.739349 v 17.9555 h -5.739349 v -2.59713 q -1.298567,1.5711 -2.757452,2.32459 -1.442853,0.73746 -3.190308,0.73746 -3.11015,0 -4.745383,-1.90777 -1.619202,-1.90777 -1.619202,-5.54697 z"
         style="font-style:normal;font-variant:normal;font-weight:bold;font-stretch:normal;font-size:32.83292007px;line-height:80.00000119%;font-family:Sans;-inkscape-font-specification:'Sans Bold';fill:#000000;stroke-width:0.47997034px"
         id="path4610" />
      <path
         d="m 57.328407,167.93961 h 5.739348 v 17.9555 h -5.739348 z m 0,-6.98982 h 5.739348 v 4.68125 h -5.739348 z"
         style="font-style:normal;font-variant:normal;font-weight:bold;font-stretch:normal;font-size:32.83292007px;line-height:80.00000119%;font-family:Sans;-inkscape-font-specification:'Sans Bold';fill:#000000;stroke-width:0.47997034px"
         id="path4612" />
      <path
         d="m 68.614723,160.94979 h 5.739348 v 24.94532 h -5.739348 z"
         style="font-style:normal;font-variant:normal;font-weight:bold;font-stretch:normal;font-size:32.83292007px;line-height:80.00000119%;font-family:Sans;-inkscape-font-specification:'Sans Bold';fill:#000000;stroke-width:0.47997034px"
         id="path4614" />
      <path
         d="m 92.117194,170.56881 v -9.61902 h 5.771411 v 24.94532 h -5.771411 v -2.59713 q -1.186346,1.58713 -2.613167,2.32459 -1.426821,0.73746 -3.30253,0.73746 -3.318562,0 -5.450778,-2.6292 -2.132216,-2.64523 -2.132216,-6.79744 0,-4.15221 2.132216,-6.78141 2.132216,-2.64523 5.450778,-2.64523 1.859677,0 3.286498,0.75349 1.442853,0.73746 2.629199,2.30857 z m -3.783481,11.62298 q 1.843645,0 2.805547,-1.34666 0.977934,-1.34667 0.977934,-3.91174 0,-2.56507 -0.977934,-3.91173 -0.961902,-1.34667 -2.805547,-1.34667 -1.827614,0 -2.805548,1.34667 -0.961902,1.34666 -0.961902,3.91173 0,2.56507 0.961902,3.91174 0.977934,1.34666 2.805548,1.34666 z"
         style="font-style:normal;font-variant:normal;font-weight:bold;font-stretch:normal;font-size:32.83292007px;line-height:80.00000119%;font-family:Sans;-inkscape-font-specification:'Sans Bold';fill:#000000;stroke-width:0.47997034px"
         id="path4616" />
      <path
         d="m 103.43557,167.93961 h 5.73935 v 17.9555 h -5.73935 z m 0,-6.98982 h 5.73935 v 4.68125 h -5.73935 z"
         style="font-style:normal;font-variant:normal;font-weight:bold;font-stretch:normal;font-size:32.83292007px;line-height:80.00000119%;font-family:Sans;-inkscape-font-specification:'Sans Bold';fill:#000000;stroke-width:0.47997034px"
         id="path4618" />
      <path
         d="m 132.77358,174.96149 v 10.93362 h -5.77141 v -1.77952 -6.58903 q 0,-2.32459 -0.11222,-3.20634 -0.0962,-0.88174 -0.3527,-1.29856 -0.33667,-0.56111 -0.91381,-0.86572 -0.57714,-0.32063 -1.3146,-0.32063 -1.79555,0 -2.82158,1.39476 -1.02603,1.37872 -1.02603,3.83157 v 8.83347 h -5.73934 v -17.9555 h 5.73934 v 2.6292 q 1.29857,-1.57111 2.75746,-2.30857 1.45888,-0.75349 3.22237,-0.75349 3.11015,0 4.71332,1.90777 1.6192,1.90778 1.6192,5.54697 z"
         style="font-style:normal;font-variant:normal;font-weight:bold;font-stretch:normal;font-size:32.83292007px;line-height:80.00000119%;font-family:Sans;-inkscape-font-specification:'Sans Bold';fill:#000000;stroke-width:0.47997034px"
         id="path4620" />
      <path
         d="m 150.34433,182.84909 q -1.18635,1.5711 -2.61317,2.30856 -1.42682,0.73746 -3.30253,0.73746 -3.2865,0 -5.43474,-2.5811 -2.14825,-2.59714 -2.14825,-6.60506 0,-4.02396 2.14825,-6.58903 2.14824,-2.5811 5.43474,-2.5811 1.87571,0 3.30253,0.73745 1.42682,0.73746 2.61317,2.3246 v -2.66126 h 5.77141 v 16.14392 q 0,4.32856 -2.74142,6.60506 -2.72539,2.29253 -7.91966,2.29253 -1.68333,0 -3.25443,-0.25651 -1.57111,-0.2565 -3.15825,-0.78555 v -4.47284 q 1.50698,0.86571 2.94983,1.28253 1.44286,0.43286 2.90174,0.43286 2.82158,0 4.13618,-1.23444 1.3146,-1.23444 1.3146,-3.86364 z m -3.78348,-11.1741 q -1.77952,0 -2.77349,1.3146 -0.99396,1.3146 -0.99396,3.71936 0,2.46888 0.9619,3.75142 0.9619,1.2665 2.80555,1.2665 1.79555,0 2.78951,-1.3146 0.99397,-1.3146 0.99397,-3.70332 0,-2.40476 -0.99397,-3.71936 -0.99396,-1.3146 -2.78951,-1.3146 z"
         style="font-style:normal;font-variant:normal;font-weight:bold;font-stretch:normal;font-size:32.83292007px;line-height:80.00000119%;font-family:Sans;-inkscape-font-specification:'Sans Bold';fill:#000000;stroke-width:0.47997034px"
         id="path4622" />
      <path
         d="m 175.69044,168.50072 v 4.36062 q -1.84364,-0.76952 -3.55904,-1.15428 -1.71539,-0.38476 -3.2384,-0.38476 -1.63523,0 -2.43682,0.41682 -0.78555,0.40079 -0.78555,1.25047 0,0.68937 0.59317,1.0581 0.60921,0.36872 2.16428,0.54507 l 1.01,0.14429 q 4.40872,0.56111 5.93173,1.84364 1.52301,1.28254 1.52301,4.02396 0,2.86967 -2.11619,4.31253 -2.11618,1.44285 -6.31649,1.44285 -1.77951,0 -3.68729,-0.28857 -1.89174,-0.27254 -3.8957,-0.83365 v -4.36062 q 1.71539,0.83365 3.51094,1.25047 1.81159,0.41683 3.67126,0.41683 1.68333,0 2.53301,-0.46492 0.84968,-0.46492 0.84968,-1.37873 0,-0.76952 -0.59317,-1.13825 -0.57714,-0.38476 -2.3246,-0.59317 l -1.01,-0.12826 q -3.83157,-0.48095 -5.37061,-1.77952 -1.53905,-1.29856 -1.53905,-3.94379 0,-2.85365 1.95587,-4.23237 1.95587,-1.37873 5.99585,-1.37873 1.58714,0 3.3346,0.24048 1.74745,0.24047 3.79951,0.75349 z"
         style="font-style:normal;font-variant:normal;font-weight:bold;font-stretch:normal;font-size:32.83292007px;line-height:80.00000119%;font-family:Sans;-inkscape-font-specification:'Sans Bold';fill:#000000;stroke-width:0.47997034px"
         id="path4624" />
      <path
         d="m 192.89245,161.95978 h 6.1722 v 23.93533 h -6.1722 z"
         style="font-style:normal;font-variant:normal;font-weight:bold;font-stretch:normal;font-size:32.83292007px;line-height:80.00000119%;font-family:Sans;-inkscape-font-specification:'Sans Bold';fill:#000000;stroke-width:0.47997034px"
         id="path4626" />
      <path
         d="m 221.52507,170.9215 q 1.09016,-1.66729 2.58111,-2.533 1.50698,-0.88175 3.30253,-0.88175 3.09412,0 4.71332,1.90777 1.6192,1.90778 1.6192,5.54697 v 10.93362 h -5.77141 v -9.36251 q 0.016,-0.20841 0.016,-0.43286 0.016,-0.22444 0.016,-0.64127 0,-1.90777 -0.56111,-2.75745 -0.56111,-0.86571 -1.81158,-0.86571 -1.63523,0 -2.53301,1.34666 -0.88174,1.34667 -0.91381,3.89571 v 8.81743 h -5.77141 v -9.36251 q 0,-2.9819 -0.51301,-3.83158 -0.51302,-0.86571 -1.82762,-0.86571 -1.65126,0 -2.54904,1.3627 -0.89777,1.34666 -0.89777,3.86363 v 8.83347 h -5.77141 v -17.9555 h 5.77141 v 2.6292 q 1.05809,-1.52301 2.42079,-2.29254 1.37872,-0.76952 3.02999,-0.76952 1.85967,0 3.28649,0.89778 1.42683,0.89777 2.16428,2.51697 z"
         style="font-style:normal;font-variant:normal;font-weight:bold;font-stretch:normal;font-size:32.83292007px;line-height:80.00000119%;font-family:Sans;-inkscape-font-specification:'Sans Bold';fill:#000000;stroke-width:0.47997034px"
         id="path4628" />
      <path
         d="m 244.86722,183.29798 v 9.42663 h -5.73935 v -24.785 h 5.73935 v 2.6292 q 1.18634,-1.57111 2.6292,-2.30857 1.44285,-0.75349 3.31856,-0.75349 3.31856,0 5.45077,2.64523 2.13222,2.6292 2.13222,6.78141 0,4.15221 -2.13222,6.79744 -2.13221,2.6292 -5.45077,2.6292 -1.87571,0 -3.31856,-0.73746 -1.44286,-0.75349 -2.6292,-2.32459 z m 3.81554,-11.62299 q -1.84364,0 -2.83761,1.3627 -0.97793,1.34666 -0.97793,3.8957 0,2.54904 0.97793,3.91174 0.99397,1.34666 2.83761,1.34666 1.84365,0 2.80555,-1.34666 0.97793,-1.34667 0.97793,-3.91174 0,-2.56507 -0.97793,-3.91173 -0.9619,-1.34667 -2.80555,-1.34667 z"
         style="font-style:normal;font-variant:normal;font-weight:bold;font-stretch:normal;font-size:32.83292007px;line-height:80.00000119%;font-family:Sans;-inkscape-font-specification:'Sans Bold';fill:#000000;stroke-width:0.47997034px"
         id="path4630" />
      <path
         d="m 271.20731,171.61087 q -1.90777,0 -2.91777,1.37872 -0.99396,1.3627 -0.99396,3.9438 0,2.5811 0.99396,3.95983 1.01,1.3627 2.91777,1.3627 1.87571,0 2.86967,-1.3627 0.99397,-1.37873 0.99397,-3.95983 0,-2.5811 -0.99397,-3.9438 -0.99396,-1.37872 -2.86967,-1.37872 z m 0,-4.10412 q 4.63316,0 7.2303,2.50095 2.61316,2.50094 2.61316,6.92569 0,4.42475 -2.61316,6.9257 -2.59714,2.50094 -7.2303,2.50094 -4.64919,0 -7.27839,-2.50094 -2.61317,-2.50095 -2.61317,-6.9257 0,-4.42475 2.61317,-6.92569 2.6292,-2.50095 7.27839,-2.50095 z"
         style="font-style:normal;font-variant:normal;font-weight:bold;font-stretch:normal;font-size:32.83292007px;line-height:80.00000119%;font-family:Sans;-inkscape-font-specification:'Sans Bold';fill:#000000;stroke-width:0.47997034px"
         id="path4632" />
      <path
         d="m 298.5734,172.82928 q -0.75349,-0.3527 -1.50698,-0.51302 -0.73745,-0.17635 -1.49094,-0.17635 -2.21238,0 -3.41476,1.42682 -1.18634,1.41079 -1.18634,4.05602 v 8.27236 h -5.73935 v -17.9555 h 5.73935 v 2.94983 q 1.10619,-1.76349 2.53301,-2.56507 1.44285,-0.81762 3.44681,-0.81762 0.28857,0 0.62524,0.0321 0.33667,0.016 0.97793,0.0962 z"
         style="font-style:normal;font-variant:normal;font-weight:bold;font-stretch:normal;font-size:32.83292007px;line-height:80.00000119%;font-family:Sans;-inkscape-font-specification:'Sans Bold';fill:#000000;stroke-width:0.47997034px"
         id="path4634" />
      <path
         d="m 307.72752,162.84153 v 5.09808 h 5.91569 v 4.10411 h -5.91569 v 7.61506 q 0,1.25047 0.49698,1.69936 0.49698,0.43286 1.9719,0.43286 h 2.94983 v 4.10411 h -4.92173 q -3.39872,0 -4.82554,-1.41079 -1.41079,-1.42682 -1.41079,-4.82554 v -7.61506 h -2.85364 v -4.10411 h 2.85364 v -5.09808 z"
         style="font-style:normal;font-variant:normal;font-weight:bold;font-stretch:normal;font-size:32.83292007px;line-height:80.00000119%;font-family:Sans;-inkscape-font-specification:'Sans Bold';fill:#000000;stroke-width:0.47997034px"
         id="path4636" />
    </g>
    <g
       aria-label="Spanish Cadastre"
       transform="scale(0.60879813,1.6425806)"
       style="font-style:normal;font-weight:normal;font-size:30.58416367px;line-height:80.00000119%;font-family:Sans;letter-spacing:0px;word-spacing:0px;fill:#000000;fill-opacity:1;stroke:none;stroke-width:0.44709668px;stroke-linecap:butt;stroke-linejoin:miter;stroke-opacity:1"
       id="text4683-9">
      <path
         d="m 167.49126,55.259544 v 2.848929 q -1.10892,-0.495858 -2.16374,-0.748295 -1.05483,-0.252436 -1.99245,-0.252436 -1.24415,0 -1.83918,0.342592 -0.59503,0.342593 -0.59503,1.063841 0,0.540935 0.39669,0.847466 0.4057,0.297514 1.46052,0.513889 l 1.47856,0.297514 q 2.24488,0.45078 3.19152,1.370371 0.94664,0.919591 0.94664,2.614523 0,2.226852 -1.32529,3.31774 -1.31628,1.081871 -4.02998,1.081871 -1.28021,0 -2.56944,-0.243421 -1.28923,-0.243421 -2.57846,-0.721248 v -2.930069 q 1.28923,0.685186 2.4883,1.036794 1.20809,0.342593 2.32603,0.342593 1.13596,0 1.74001,-0.378655 0.60404,-0.378655 0.60404,-1.081872 0,-0.631092 -0.41472,-0.973684 -0.4057,-0.342593 -1.63182,-0.613061 l -1.34332,-0.297515 q -2.0195,-0.432748 -2.95712,-1.379386 -0.9286,-0.946637 -0.9286,-2.551414 0,-2.010478 1.29824,-3.092349 1.29825,-1.081872 3.73246,-1.081872 1.10892,0 2.28094,0.171296 1.17203,0.162281 2.4252,0.495858 z"
         style="font-style:normal;font-variant:normal;font-weight:bold;font-stretch:normal;font-size:18.46394157px;line-height:80.00000119%;font-family:Sans;-inkscape-font-specification:'Sans Bold';fill:#000000;stroke-width:0.44709668px"
         id="path4577" />
      <path
         d="m 174.51441,66.83557 v 5.301171 h -3.22758 V 58.198629 h 3.22758 v 1.478558 q 0.66715,-0.883529 1.47856,-1.298246 0.8114,-0.423733 1.86623,-0.423733 1.86622,0 3.0653,1.487573 1.19907,1.478558 1.19907,3.813597 0,2.33504 -1.19907,3.822613 -1.19908,1.478558 -3.0653,1.478558 -1.05483,0 -1.86623,-0.414717 -0.81141,-0.423733 -1.47856,-1.307262 z m 2.14571,-6.536307 q -1.03679,0 -1.59576,0.766325 -0.54995,0.757311 -0.54995,2.19079 0,1.43348 0.54995,2.199806 0.55897,0.75731 1.59576,0.75731 1.03679,0 1.57773,-0.75731 0.54995,-0.75731 0.54995,-2.199806 0,-1.442495 -0.54995,-2.199805 -0.54094,-0.75731 -1.57773,-0.75731 z"
         style="font-style:normal;font-variant:normal;font-weight:bold;font-stretch:normal;font-size:18.46394157px;line-height:80.00000119%;font-family:Sans;-inkscape-font-specification:'Sans Bold';fill:#000000;stroke-width:0.44709668px"
         id="path4579" />
      <path
         d="m 189.04755,63.752236 q -1.00975,0 -1.52363,0.342593 -0.50488,0.342593 -0.50488,1.009747 0,0.61306 0.4057,0.964668 0.41472,0.342593 1.14498,0.342593 0.91058,0 1.53266,-0.649123 0.62207,-0.658138 0.62207,-1.640838 v -0.36964 z m 4.93153,-1.217105 v 5.760966 h -3.25463 v -1.496589 q -0.64912,0.919591 -1.46052,1.343324 -0.81141,0.414717 -1.97442,0.414717 -1.56871,0 -2.55141,-0.910575 -0.97369,-0.919591 -0.97369,-2.380118 0,-1.776072 1.21711,-2.605507 1.22612,-0.829435 3.84064,-0.829435 h 1.90229 v -0.252437 q 0,-0.766325 -0.60404,-1.117934 -0.60405,-0.360623 -1.88426,-0.360623 -1.0368,0 -1.92934,0.207358 -0.89254,0.207359 -1.65887,0.622076 v -2.461257 q 1.03679,-0.252437 2.0826,-0.378655 1.04581,-0.135234 2.09162,-0.135234 2.73173,0 3.93982,1.081871 1.2171,1.072856 1.2171,3.498052 z"
         style="font-style:normal;font-variant:normal;font-weight:bold;font-stretch:normal;font-size:18.46394157px;line-height:80.00000119%;font-family:Sans;-inkscape-font-specification:'Sans Bold';fill:#000000;stroke-width:0.44709668px"
         id="path4581" />
      <path
         d="m 207.15087,62.14746 v 6.148637 h -3.24562 v -1.000731 -3.705411 q 0,-1.307261 -0.0631,-1.803119 -0.0541,-0.495858 -0.19834,-0.730263 -0.18933,-0.315546 -0.51389,-0.486842 -0.32456,-0.180312 -0.73928,-0.180312 -1.00974,0 -1.58674,0.784357 -0.577,0.775341 -0.577,2.154727 v 4.967594 h -3.22758 V 58.198629 h 3.22758 v 1.478558 q 0.73026,-0.883529 1.55068,-1.298246 0.82042,-0.423733 1.81214,-0.423733 1.74902,0 2.65058,1.072856 0.91058,1.072856 0.91058,3.119396 z"
         style="font-style:normal;font-variant:normal;font-weight:bold;font-stretch:normal;font-size:18.46394157px;line-height:80.00000119%;font-family:Sans;-inkscape-font-specification:'Sans Bold';fill:#000000;stroke-width:0.44709668px"
         id="path4583" />
      <path
         d="m 210.16208,58.198629 h 3.22758 v 10.097468 h -3.22758 z m 0,-3.9308 h 3.22758 v 2.632554 h -3.22758 z"
         style="font-style:normal;font-variant:normal;font-weight:bold;font-stretch:normal;font-size:18.46394157px;line-height:80.00000119%;font-family:Sans;-inkscape-font-specification:'Sans Bold';fill:#000000;stroke-width:0.44709668px"
         id="path4585" />
      <path
         d="m 224.3977,58.514175 v 2.452242 q -1.03679,-0.432749 -2.00146,-0.649123 -0.96467,-0.216374 -1.82115,-0.216374 -0.91959,0 -1.37037,0.234405 -0.44176,0.22539 -0.44176,0.703217 0,0.38767 0.33357,0.595029 0.3426,0.207359 1.21711,0.30653 l 0.56798,0.08114 q 2.47929,0.315546 3.33577,1.036793 0.85648,0.721248 0.85648,2.262915 0,1.613792 -1.19006,2.425195 -1.19005,0.811404 -3.55214,0.811404 -1.00073,0 -2.07359,-0.162281 -1.06384,-0.153265 -2.19079,-0.468811 v -2.452242 q 0.96467,0.468811 1.97442,0.703217 1.01876,0.234405 2.06457,0.234405 0.94664,0 1.42446,-0.261452 0.47783,-0.261452 0.47783,-0.775341 0,-0.432749 -0.33358,-0.640108 -0.32456,-0.216374 -1.30726,-0.333577 l -0.56798,-0.07212 q -2.15473,-0.270468 -3.02023,-1.000731 -0.86549,-0.730263 -0.86549,-2.217837 0,-1.604776 1.0999,-2.380117 1.0999,-0.775341 3.37183,-0.775341 0.89255,0 1.87525,0.135234 0.9827,0.135234 2.13669,0.423733 z"
         style="font-style:normal;font-variant:normal;font-weight:bold;font-stretch:normal;font-size:18.46394157px;line-height:80.00000119%;font-family:Sans;-inkscape-font-specification:'Sans Bold';fill:#000000;stroke-width:0.44709668px"
         id="path4587" />
      <path
         d="m 237.65965,62.14746 v 6.148637 h -3.24562 v -1.000731 -3.687379 q 0,-1.325293 -0.0631,-1.821151 -0.0541,-0.495858 -0.19835,-0.730263 -0.18933,-0.315546 -0.51389,-0.486842 -0.32456,-0.180312 -0.73928,-0.180312 -1.00974,0 -1.58674,0.784357 -0.577,0.775341 -0.577,2.154727 v 4.967594 h -3.22758 V 54.267829 h 3.22758 v 5.409358 q 0.73026,-0.883529 1.55068,-1.298246 0.82042,-0.423733 1.81214,-0.423733 1.74902,0 2.65058,1.072856 0.91058,1.072856 0.91058,3.119396 z"
         style="font-style:normal;font-variant:normal;font-weight:bold;font-stretch:normal;font-size:18.46394157px;line-height:80.00000119%;font-family:Sans;-inkscape-font-specification:'Sans Bold';fill:#000000;stroke-width:0.44709668px"
         id="path4589" />
      <path
         d="m 257.90867,67.556818 q -0.95565,0.495858 -1.99244,0.748294 -1.0368,0.252437 -2.16375,0.252437 -3.36281,0 -5.32821,-1.875244 -1.9654,-1.88426 -1.9654,-5.102828 0,-3.227583 1.9654,-5.102827 1.9654,-1.88426 5.32821,-1.88426 1.12695,0 2.16375,0.252437 1.03679,0.252437 1.99244,0.748294 v 2.78582 q -0.96466,-0.658139 -1.90229,-0.964669 -0.93762,-0.30653 -1.97441,-0.30653 -1.85721,0 -2.92106,1.190058 -1.06384,1.190059 -1.06384,3.281677 0,2.082603 1.06384,3.272662 1.06385,1.190059 2.92106,1.190059 1.03679,0 1.97441,-0.306531 0.93763,-0.30653 1.90229,-0.964668 z"
         style="font-style:normal;font-variant:normal;font-weight:bold;font-stretch:normal;font-size:18.46394157px;line-height:80.00000119%;font-family:Sans;-inkscape-font-specification:'Sans Bold';fill:#000000;stroke-width:0.44709668px"
         id="path4591" />
      <path
         d="m 265.17525,63.752236 q -1.00975,0 -1.52363,0.342593 -0.50488,0.342593 -0.50488,1.009747 0,0.61306 0.4057,0.964668 0.41472,0.342593 1.14499,0.342593 0.91057,0 1.53265,-0.649123 0.62207,-0.658138 0.62207,-1.640838 v -0.36964 z m 4.93153,-1.217105 v 5.760966 h -3.25463 v -1.496589 q -0.64912,0.919591 -1.46052,1.343324 -0.81141,0.414717 -1.97442,0.414717 -1.56871,0 -2.55141,-0.910575 -0.97369,-0.919591 -0.97369,-2.380118 0,-1.776072 1.21711,-2.605507 1.22612,-0.829435 3.84064,-0.829435 h 1.90229 v -0.252437 q 0,-0.766325 -0.60404,-1.117934 -0.60405,-0.360623 -1.88426,-0.360623 -1.0368,0 -1.92934,0.207358 -0.89254,0.207359 -1.65887,0.622076 v -2.461257 q 1.03679,-0.252437 2.0826,-0.378655 1.04581,-0.135234 2.09162,-0.135234 2.73173,0 3.93982,1.081871 1.2171,1.072856 1.2171,3.498052 z"
         style="font-style:normal;font-variant:normal;font-weight:bold;font-stretch:normal;font-size:18.46394157px;line-height:80.00000119%;font-family:Sans;-inkscape-font-specification:'Sans Bold';fill:#000000;stroke-width:0.44709668px"
         id="path4593" />
      <path
         d="m 279.99689,59.677187 v -5.409358 h 3.24562 v 14.028268 h -3.24562 V 66.83557 q -0.66715,0.892544 -1.46954,1.307262 -0.80239,0.414717 -1.85721,0.414717 -1.86623,0 -3.06531,-1.478558 -1.19907,-1.487573 -1.19907,-3.822613 0,-2.335039 1.19907,-3.813597 1.19908,-1.487573 3.06531,-1.487573 1.04581,0 1.84819,0.423733 0.81141,0.414717 1.47856,1.298246 z m -2.12768,6.536307 q 1.03679,0 1.57773,-0.75731 0.54995,-0.75731 0.54995,-2.199806 0,-1.442495 -0.54995,-2.199805 -0.54094,-0.75731 -1.57773,-0.75731 -1.02778,0 -1.57773,0.75731 -0.54093,0.75731 -0.54093,2.199805 0,1.442496 0.54093,2.199806 0.54995,0.75731 1.57773,0.75731 z"
         style="font-style:normal;font-variant:normal;font-weight:bold;font-stretch:normal;font-size:18.46394157px;line-height:80.00000119%;font-family:Sans;-inkscape-font-specification:'Sans Bold';fill:#000000;stroke-width:0.44709668px"
         id="path4595" />
      <path
         d="m 290.88773,63.752236 q -1.00975,0 -1.52364,0.342593 -0.50487,0.342593 -0.50487,1.009747 0,0.61306 0.4057,0.964668 0.41472,0.342593 1.14498,0.342593 0.91058,0 1.53266,-0.649123 0.62207,-0.658138 0.62207,-1.640838 v -0.36964 z m 4.93153,-1.217105 v 5.760966 h -3.25463 v -1.496589 q -0.64912,0.919591 -1.46053,1.343324 -0.8114,0.414717 -1.97441,0.414717 -1.56871,0 -2.55141,-0.910575 -0.97369,-0.919591 -0.97369,-2.380118 0,-1.776072 1.21711,-2.605507 1.22612,-0.829435 3.84064,-0.829435 h 1.90229 v -0.252437 q 0,-0.766325 -0.60404,-1.117934 -0.60405,-0.360623 -1.88426,-0.360623 -1.0368,0 -1.92934,0.207358 -0.89255,0.207359 -1.65887,0.622076 v -2.461257 q 1.03679,-0.252437 2.0826,-0.378655 1.04581,-0.135234 2.09162,-0.135234 2.73173,0 3.93982,1.081871 1.2171,1.072856 1.2171,3.498052 z"
         style="font-style:normal;font-variant:normal;font-weight:bold;font-stretch:normal;font-size:18.46394157px;line-height:80.00000119%;font-family:Sans;-inkscape-font-specification:'Sans Bold';fill:#000000;stroke-width:0.44709668px"
         id="path4597" />
      <path
         d="m 306.72813,58.514175 v 2.452242 q -1.03679,-0.432749 -2.00146,-0.649123 -0.96467,-0.216374 -1.82115,-0.216374 -0.91959,0 -1.37037,0.234405 -0.44177,0.22539 -0.44177,0.703217 0,0.38767 0.33358,0.595029 0.34259,0.207359 1.21711,0.30653 l 0.56798,0.08114 q 2.47929,0.315546 3.33577,1.036793 0.85648,0.721248 0.85648,2.262915 0,1.613792 -1.19006,2.425195 -1.19006,0.811404 -3.55214,0.811404 -1.00073,0 -2.07359,-0.162281 -1.06384,-0.153265 -2.19079,-0.468811 v -2.452242 q 0.96467,0.468811 1.97442,0.703217 1.01876,0.234405 2.06457,0.234405 0.94664,0 1.42446,-0.261452 0.47783,-0.261452 0.47783,-0.775341 0,-0.432749 -0.33358,-0.640108 -0.32456,-0.216374 -1.30726,-0.333577 l -0.56798,-0.07212 q -2.15473,-0.270468 -3.02023,-1.000731 -0.86549,-0.730263 -0.86549,-2.217837 0,-1.604776 1.0999,-2.380117 1.0999,-0.775341 3.37183,-0.775341 0.89255,0 1.87525,0.135234 0.9827,0.135234 2.13669,0.423733 z"
         style="font-style:normal;font-variant:normal;font-weight:bold;font-stretch:normal;font-size:18.46394157px;line-height:80.00000119%;font-family:Sans;-inkscape-font-specification:'Sans Bold';fill:#000000;stroke-width:0.44709668px"
         id="path4599" />
      <path
         d="m 313.36361,55.331669 v 2.86696 h 3.32675 v 2.307992 h -3.32675 v 4.282409 q 0,0.703216 0.27948,0.955653 0.27948,0.243421 1.10892,0.243421 h 1.65887 v 2.307993 h -2.76779 q -1.91131,0 -2.71369,-0.793373 -0.79338,-0.802388 -0.79338,-2.713694 v -4.282409 h -1.60477 v -2.307992 h 1.60477 v -2.86696 z"
         style="font-style:normal;font-variant:normal;font-weight:bold;font-stretch:normal;font-size:18.46394157px;line-height:80.00000119%;font-family:Sans;-inkscape-font-specification:'Sans Bold';fill:#000000;stroke-width:0.44709668px"
         id="path4601" />
      <path
         d="m 326.17477,60.948386 q -0.42374,-0.198343 -0.84747,-0.288499 -0.41472,-0.09917 -0.83845,-0.09917 -1.24415,0 -1.92032,0.802388 -0.66716,0.793373 -0.66716,2.280946 v 4.652048 h -3.22758 V 58.198629 h 3.22758 v 1.65887 q 0.62208,-0.991716 1.42447,-1.442496 0.8114,-0.459795 1.93835,-0.459795 0.16228,0 0.35161,0.01803 0.18933,0.009 0.54995,0.05409 z"
         style="font-style:normal;font-variant:normal;font-weight:bold;font-stretch:normal;font-size:18.46394157px;line-height:80.00000119%;font-family:Sans;-inkscape-font-specification:'Sans Bold';fill:#000000;stroke-width:0.44709668px"
         id="path4603" />
      <path
         d="m 337.87702,63.220316 v 0.919591 h -7.54605 q 0.1172,1.135965 0.82042,1.703948 0.70321,0.567982 1.9654,0.567982 1.01876,0 2.0826,-0.297515 1.07286,-0.30653 2.19981,-0.91959 v 2.488304 q -1.14499,0.432749 -2.28997,0.649123 -1.14498,0.22539 -2.28996,0.22539 -2.74074,0 -4.26437,-1.388402 -1.51463,-1.397417 -1.51463,-3.912769 0,-2.470273 1.48758,-3.885722 1.49659,-1.415448 4.11111,-1.415448 2.38012,0 3.80458,1.433479 1.43348,1.43348 1.43348,3.831629 z m -3.31774,-1.072856 q 0,-0.919591 -0.54093,-1.478558 -0.53192,-0.567982 -1.39742,-0.567982 -0.93762,0 -1.52364,0.53192 -0.58601,0.522904 -0.73026,1.51462 z"
         style="font-style:normal;font-variant:normal;font-weight:bold;font-stretch:normal;font-size:18.46394157px;line-height:80.00000119%;font-family:Sans;-inkscape-font-specification:'Sans Bold';fill:#000000;stroke-width:0.44709668px"
         id="path4605" />
    </g>
    <g
       aria-label="OpenStreetMap"
       transform="matrix(0,-0.41413131,0.74065239,0,-35.029975,-117.32183)"
       style="font-style:normal;font-weight:normal;font-size:37.33333206px;line-height:125%;font-family:Sans;letter-spacing:0px;word-spacing:0px;fill:#808080;fill-opacity:1;stroke:none;stroke-width:1px;stroke-linecap:butt;stroke-linejoin:miter;stroke-opacity:1"
       id="flowRoot4589">
      <path
         d="m -785.77148,60.15039 q -4.01042,0 -6.38021,2.989583 -2.35157,2.989583 -2.35157,8.148437 0,5.140625 2.35157,8.130208 2.36979,2.989584 6.38021,2.989584 4.01041,0 6.34374,-2.989584 2.35157,-2.989583 2.35157,-8.130208 0,-5.158854 -2.35157,-8.148437 -2.33333,-2.989583 -6.34374,-2.989583 z m 0,-2.989583 q 5.72395,0 9.15104,3.846354 3.42708,3.828125 3.42708,10.281249 0,6.434896 -3.42708,10.28125 -3.42709,3.828125 -9.15104,3.828125 -5.74219,0 -9.1875,-3.828125 -3.42709,-3.828125 -3.42709,-10.28125 0,-6.453124 3.42709,-10.281249 3.44531,-3.846354 9.1875,-3.846354 z"
         style=""
         id="path4550" />
      <path
         d="m -764.33399,81.806639 v 10.828125 h -3.37239 V 64.452473 h 3.37239 v 3.098958 q 1.0573,-1.822916 2.66146,-2.697916 1.6224,-0.893229 3.86459,-0.893229 3.71875,0 6.03385,2.953124 2.33333,2.953125 2.33333,7.765625 0,4.8125 -2.33333,7.765625 -2.3151,2.953125 -6.03385,2.953125 -2.24219,0 -3.86459,-0.875 -1.60416,-0.893229 -2.66146,-2.716146 z m 11.41146,-7.127604 q 0,-3.700521 -1.53125,-5.796875 -1.51302,-2.114583 -4.17448,-2.114583 -2.66145,0 -4.1927,2.114583 -1.51303,2.096354 -1.51303,5.796875 0,3.700521 1.51303,5.815104 1.53125,2.096354 4.1927,2.096354 2.66146,0 4.17448,-2.096354 1.53125,-2.114583 1.53125,-5.815104 z"
         style=""
         id="path4552" />
      <path
         d="m -726.41732,73.822264 v 1.640625 h -15.42187 q 0.21875,3.463542 2.07812,5.286458 1.8776,1.804688 5.21354,1.804688 1.93229,0 3.73698,-0.473958 1.82292,-0.473959 3.60938,-1.421875 v 3.171875 q -1.80469,0.765625 -3.70052,1.166666 -1.89584,0.401042 -3.84636,0.401042 -4.88542,0 -7.74739,-2.84375 -2.84375,-2.84375 -2.84375,-7.692708 0,-5.013021 2.69791,-7.947917 2.71615,-2.953124 7.3099,-2.953124 4.11979,0 6.50781,2.661458 2.40625,2.643229 2.40625,7.20052 z m -3.35417,-0.984375 q -0.0365,-2.752604 -1.54948,-4.393229 -1.49479,-1.640625 -3.97395,-1.640625 -2.8073,0 -4.50261,1.585938 -1.67708,1.585937 -1.93229,4.466146 z"
         style=""
         id="path4554" />
      <path
         d="m -703.94076,72.546223 v 12.322916 h -3.35417 V 72.655598 q 0,-2.898438 -1.13021,-4.338542 -1.1302,-1.440104 -3.39062,-1.440104 -2.71615,0 -4.28385,1.731771 -1.56771,1.731771 -1.56771,4.721354 v 11.539062 h -3.3724 V 64.452473 h 3.3724 v 3.171875 q 1.20312,-1.841146 2.82552,-2.752604 1.64062,-0.911458 3.77344,-0.911458 3.51822,0 5.32291,2.187499 1.80469,2.169271 1.80469,6.398438 z"
         style=""
         id="path4556" />
      <path
         d="m -680.75326,58.546223 v 3.591146 q -2.09635,-1.002604 -3.95572,-1.494792 -1.85938,-0.492187 -3.59115,-0.492187 -3.00781,0 -4.64844,1.166666 -1.62239,1.166667 -1.62239,3.317709 0,1.804687 1.07552,2.734375 1.09375,0.911458 4.11979,1.476562 l 2.22396,0.455729 q 4.11979,0.783854 6.07031,2.770833 1.96875,1.96875 1.96875,5.286459 0,3.955729 -2.66146,5.997395 -2.64323,2.041667 -7.76562,2.041667 -1.9323,0 -4.1198,-0.4375 -2.16927,-0.4375 -4.5026,-1.294271 v -3.791666 q 2.24219,1.257812 4.39323,1.895833 2.15104,0.638021 4.22917,0.638021 3.15364,0 4.86718,-1.239584 1.71355,-1.239583 1.71355,-3.536458 0,-2.005208 -1.23959,-3.135416 -1.22135,-1.130209 -4.02864,-1.695313 l -2.24219,-0.4375 q -4.11979,-0.820312 -5.96094,-2.570312 -1.84114,-1.75 -1.84114,-4.867188 0,-3.609375 2.53385,-5.687499 2.55208,-2.078125 7.01823,-2.078125 1.91406,0 3.90104,0.346354 1.98698,0.346354 4.0651,1.039062 z"
         style=""
         id="path4558" />
      <path
         d="m -670.19857,58.655598 v 5.796875 h 6.90885 v 2.606771 h -6.90885 v 11.083333 q 0,2.497396 0.67448,3.208333 0.69271,0.710937 2.78906,0.710937 h 3.44531 v 2.807292 h -3.44531 q -3.88281,0 -5.35937,-1.440104 -1.47657,-1.458333 -1.47657,-5.286458 V 67.059244 h -2.46093 v -2.606771 h 2.46093 v -5.796875 z"
         style=""
         id="path4560" />
      <path
         d="m -647.02931,67.58789 q -0.5651,-0.328125 -1.23958,-0.473959 -0.65625,-0.164062 -1.45833,-0.164062 -2.84375,0 -4.375,1.859375 -1.51302,1.841146 -1.51302,5.304687 v 10.755208 h -3.3724 V 64.452473 h 3.3724 v 3.171875 q 1.05729,-1.859375 2.7526,-2.752604 1.69531,-0.911458 4.11979,-0.911458 0.34635,0 0.76563,0.05469 0.41927,0.03646 0.92968,0.127604 z"
         style=""
         id="path4562" />
      <path
         d="m -626.81315,73.822264 v 1.640625 h -15.42188 q 0.21875,3.463542 2.07813,5.286458 1.8776,1.804688 5.21354,1.804688 1.93229,0 3.73698,-0.473958 1.82292,-0.473959 3.60937,-1.421875 v 3.171875 q -1.80468,0.765625 -3.70052,1.166666 -1.89583,0.401042 -3.84635,0.401042 -4.88542,0 -7.7474,-2.84375 -2.84375,-2.84375 -2.84375,-7.692708 0,-5.013021 2.69792,-7.947917 2.71615,-2.953124 7.3099,-2.953124 4.11979,0 6.50781,2.661458 2.40625,2.643229 2.40625,7.20052 z m -3.35417,-0.984375 q -0.0365,-2.752604 -1.54948,-4.393229 -1.49479,-1.640625 -3.97396,-1.640625 -2.80729,0 -4.5026,1.585938 -1.67708,1.585937 -1.93229,4.466146 z"
         style=""
         id="path4564" />
      <path
         d="m -603.8444,73.822264 v 1.640625 h -15.42188 q 0.21875,3.463542 2.07813,5.286458 1.8776,1.804688 5.21354,1.804688 1.93229,0 3.73698,-0.473958 1.82292,-0.473959 3.60937,-1.421875 v 3.171875 q -1.80468,0.765625 -3.70052,1.166666 -1.89583,0.401042 -3.84635,0.401042 -4.88542,0 -7.7474,-2.84375 -2.84375,-2.84375 -2.84375,-7.692708 0,-5.013021 2.69792,-7.947917 2.71615,-2.953124 7.3099,-2.953124 4.11979,0 6.50781,2.661458 2.40625,2.643229 2.40625,7.20052 z m -3.35417,-0.984375 q -0.0365,-2.752604 -1.54948,-4.393229 -1.49479,-1.640625 -3.97396,-1.640625 -2.80729,0 -4.5026,1.585938 -1.67708,1.585937 -1.93229,4.466146 z"
         style=""
         id="path4566" />
      <path
         d="m -595.02148,58.655598 v 5.796875 h 6.90885 v 2.606771 h -6.90885 v 11.083333 q 0,2.497396 0.67447,3.208333 0.69271,0.710937 2.78907,0.710937 h 3.44531 v 2.807292 h -3.44531 q -3.88282,0 -5.35938,-1.440104 -1.47656,-1.458333 -1.47656,-5.286458 V 67.059244 h -2.46094 v -2.606771 h 2.46094 v -5.796875 z"
         style=""
         id="path4568" />
      <path
         d="m -583.53711,57.652994 h 5.48698 l 6.94531,18.520833 6.98177,-18.520833 h 5.48698 v 27.216145 h -3.59114 V 60.970702 l -7.01823,18.666666 h -3.70052 l -7.01823,-18.666666 v 23.898437 h -3.57292 z"
         style=""
         id="path4570" />
      <path
         d="m -542.17514,74.606119 q -4.0651,0 -5.63281,0.929687 -1.56771,0.929687 -1.56771,3.171875 0,1.786458 1.16667,2.84375 1.18489,1.039062 3.20833,1.039062 2.78906,0 4.46614,-1.96875 1.69532,-1.986979 1.69532,-5.268229 v -0.747395 z m 6.6901,-1.385417 v 11.648437 h -3.35416 v -3.098958 q -1.14844,1.859375 -2.86198,2.752604 -1.71354,0.875 -4.19271,0.875 -3.13542,0 -4.99479,-1.75 -1.84115,-1.768229 -1.84115,-4.721354 0,-3.445312 2.29688,-5.195312 2.3151,-1.75 6.89062,-1.75 h 4.70313 v -0.328125 q 0,-2.315104 -1.53125,-3.572917 -1.51302,-1.276042 -4.26563,-1.276042 -1.75,0 -3.40885,0.419271 -1.65886,0.419271 -3.19011,1.257813 v -3.098958 q 1.84115,-0.710938 3.57292,-1.057292 1.73177,-0.364583 3.3724,-0.364583 4.42968,0 6.61718,2.296874 2.1875,2.296875 2.1875,6.963542 z"
         style=""
         id="path4572" />
      <path
         d="m -525.31315,81.806639 v 10.828125 h -3.3724 V 64.452473 h 3.3724 v 3.098958 q 1.05729,-1.822916 2.66146,-2.697916 1.62239,-0.893229 3.86458,-0.893229 3.71875,0 6.03385,2.953124 2.33334,2.953125 2.33334,7.765625 0,4.8125 -2.33334,7.765625 -2.3151,2.953125 -6.03385,2.953125 -2.24219,0 -3.86458,-0.875 -1.60417,-0.893229 -2.66146,-2.716146 z m 11.41146,-7.127604 q 0,-3.700521 -1.53125,-5.796875 -1.51302,-2.114583 -4.17448,-2.114583 -2.66146,0 -4.19271,2.114583 -1.51302,2.096354 -1.51302,5.796875 0,3.700521 1.51302,5.815104 1.53125,2.096354 4.19271,2.096354 2.66146,0 4.17448,-2.096354 1.53125,-2.114583 1.53125,-5.815104 z"
         style=""
         id="path4574" />
    </g>
  </g>
</svg>
